<?xml version="1.0" encoding="UTF-8" standalone="no"?>
<svg
   xmlns:dc="http://purl.org/dc/elements/1.1/"
   xmlns:cc="http://creativecommons.org/ns#"
   xmlns:rdf="http://www.w3.org/1999/02/22-rdf-syntax-ns#"
   xmlns:svg="http://www.w3.org/2000/svg"
   xmlns="http://www.w3.org/2000/svg"
   xmlns:sodipodi="http://sodipodi.sourceforge.net/DTD/sodipodi-0.dtd"
   xmlns:inkscape="http://www.inkscape.org/namespaces/inkscape"
   width="32"
   height="32"
   viewBox="0 0 8.4666669 8.4666662"
   version="1.1"
   id="svg8"
   inkscape:version="1.0.1 (3bc2e813f5, 2020-09-07)"
   sodipodi:docname="iota.svg"
   inkscape:export-filename="C:\Users\raafaell\Desktop\bitmap.png"
   inkscape:export-xdpi="120"
   inkscape:export-ydpi="120">
  <defs
     id="defs2" />
  <sodipodi:namedview
     id="base"
     pagecolor="#ffffff"
     bordercolor="#666666"
     borderopacity="1.0"
     inkscape:pageopacity="0.0"
     inkscape:pageshadow="2"
     inkscape:zoom="11.2"
     inkscape:cx="4.8149794"
     inkscape:cy="36.646644"
     inkscape:document-units="mm"
     inkscape:current-layer="layer1"
     inkscape:document-rotation="0"
     showgrid="false"
     inkscape:window-width="2560"
     inkscape:window-height="1377"
     inkscape:window-x="1072"
     inkscape:window-y="528"
     inkscape:window-maximized="1"
     units="px" />
  <metadata
     id="metadata5">
    <rdf:RDF>
      <cc:Work
         rdf:about="">
        <dc:format>image/svg+xml</dc:format>
        <dc:type
           rdf:resource="http://purl.org/dc/dcmitype/StillImage" />
        <dc:title></dc:title>
      </cc:Work>
    </rdf:RDF>
  </metadata>
  <g
     inkscape:label="Layer 1"
     inkscape:groupmode="layer"
     id="layer1">
    <path
       style="fill:#000000;stroke-width:0.0126453"
       d="M 4.693801,8.0713491 C 4.5260241,8.0162817 4.4245148,7.8772283 4.4242719,7.7021391 4.4240976,7.5734877 4.4523033,7.5023232 4.5371443,7.4173927 c 0.089154,-0.089252 0.1646285,-0.117465 0.2957735,-0.1105725 0.1505312,0.00792 0.2636805,0.081446 0.3336478,0.2168247 0.046467,0.089908 0.049176,0.2371166 0.0061,0.3311479 C 5.1359646,7.9348826 5.0674705,8.006159 4.9882666,8.0466734 4.9120021,8.085681 4.7729754,8.0973369 4.6938075,8.07135 Z M 3.1895168,7.9492636 C 3.1134552,7.9257699 3.0305698,7.8576654 2.9903178,7.78559 2.9571655,7.7262279 2.9517543,7.7037532 2.9522738,7.6275242 2.9528714,7.5257696 2.9732353,7.4697431 3.0346484,7.3997979 3.095814,7.3301356 3.1844827,7.2922863 3.2860678,7.2924756 3.4811606,7.2929114 3.6144401,7.4274544 3.6147233,7.6244205 3.6148975,7.7617569 3.5614411,7.8563942 3.449075,7.9175516 3.3776075,7.95645 3.2594925,7.9708811 3.1895168,7.9492618 Z M 6.4600491,7.8157779 C 6.1186868,7.7255518 6.0078356,7.2826004 6.2656075,7.0388106 6.3681868,6.9417957 6.427516,6.919221 6.5801801,6.9191191 c 0.1107193,-1.247e-4 0.1354162,0.00409 0.1984876,0.033685 0.09174,0.043002 0.1728171,0.12408 0.2198295,0.219832 0.032923,0.067051 0.036916,0.08817 0.036916,0.1953137 0,0.1033733 -0.00464,0.1300444 -0.033322,0.1911973 C 6.9385655,7.6946278 6.8286439,7.7858794 6.6895297,7.8186223 6.5999723,7.8397048 6.548129,7.8390587 6.4600494,7.8158016 Z M 3.8980765,7.3946087 C 3.7846944,7.3655372 3.6800786,7.2667353 3.6517172,7.161928 3.6336947,7.0953776 3.6429912,6.9683331 3.6696196,6.9168216 3.7322091,6.7957843 3.838364,6.7311101 3.9752304,6.7306324 c 0.074538,-1.865e-4 0.099381,0.00555 0.1573002,0.037142 0.070506,0.038389 0.1330509,0.1109719 0.1610319,0.1868698 0.036069,0.097829 0.010176,0.2430709 -0.058121,0.3259168 C 4.1622395,7.369368 4.0058441,7.4222349 3.8980679,7.3946066 Z M 5.3472012,7.2504889 C 5.1774806,7.202355 5.0650068,7.0491872 5.0648993,6.8660489 c -4.45e-5,-0.076796 0.00623,-0.1036936 0.040399,-0.1730911 0.069195,-0.1405593 0.1880373,-0.212994 0.3494456,-0.212994 0.3455247,0 0.5174236,0.3994953 0.2855377,0.6635968 C 5.655978,7.2395783 5.4787319,7.2877941 5.3472012,7.2504889 Z M 2.6255267,7.2162583 C 2.5081499,7.1809177 2.4265029,7.0706009 2.4263036,6.9470823 2.4261294,6.7733415 2.5390864,6.6606981 2.7143686,6.6600857 c 0.093448,-4.358e-4 0.1566172,0.027006 0.2143278,0.092733 0.052029,0.059262 0.07032,0.1213294 0.064178,0.2177901 -0.00404,0.063621 -0.013064,0.092106 -0.042571,0.1346886 -0.067711,0.097687 -0.2087875,0.145885 -0.3247767,0.1109609 z M 3.3269829,6.6607663 C 3.2597319,6.6436783 3.1887205,6.5886109 3.1508302,6.5241524 3.1216723,6.4745535 3.1153558,6.4489943 3.1153558,6.3806195 c 0,-0.070527 0.00581,-0.092608 0.038271,-0.1450879 0.023721,-0.038371 0.061803,-0.07645 0.1001712,-0.1001704 0.052825,-0.032666 0.074096,-0.038207 0.1450868,-0.037807 0.1734879,10e-4 0.2846597,0.1119101 0.2846597,0.2840531 0,0.085722 -0.02081,0.1425883 -0.073337,0.2003927 C 3.5493945,6.648923 3.4209738,6.6846354 3.3269841,6.660761 Z M 4.4684072,6.541153 C 4.3478882,6.4841748 4.2857967,6.3823429 4.2853268,6.2408955 4.2849221,6.1416777 4.3065448,6.0837487 4.3698314,6.0136969 4.6074343,5.7507 5.0364701,5.9945981 4.9371612,6.3362125 c -0.025316,0.087087 -0.096248,0.1700739 -0.1783491,0.2086666 -0.080265,0.037734 -0.206133,0.036114 -0.290405,-0.00373 z M 2.2398398,6.4757218 C 2.0541003,6.3643977 2.0964175,6.0848214 2.307503,6.028684 2.371421,6.011678 2.4288085,6.021314 2.4977944,6.060576 c 0.065798,0.037461 0.1042015,0.098331 0.1139475,0.1806097 0.010614,0.089616 -0.038719,0.1906404 -0.1148973,0.235283 -0.075595,0.044303 -0.1823577,0.043994 -0.2570049,-7.971e-4 z m 3.501239,-0.442269 c -0.057227,-0.048152 -0.072852,-0.1082632 -0.046246,-0.1779245 0.025487,-0.066742 0.068773,-0.093535 0.1510892,-0.093535 0.080189,0 0.1335564,0.047879 0.1425796,0.127929 0.011869,0.1052504 -0.051862,0.1755587 -0.1591201,0.1755587 -0.035313,0 -0.061549,-0.00952 -0.088302,-0.032029 z M 2.9443306,5.9232161 C 2.8606183,5.8808746 2.8128408,5.8051778 2.8123433,5.7140982 c -4.046e-4,-0.090781 0.031294,-0.1578758 0.097546,-0.2058685 0.094613,-0.068536 0.2190848,-0.061669 0.3087218,0.017026 0.057151,0.050177 0.080102,0.1035406 0.080102,0.1862436 0,0.186736 -0.1851138,0.2973249 -0.3543822,0.2117102 z m 3.2472352,0.00246 C 6.0695891,5.8612698 6.0712157,5.6724874 6.1942955,5.6080561 6.3545868,5.5241484 6.5285287,5.7064505 6.434822,5.8601424 6.3817673,5.9471566 6.2827672,5.9738268 6.1915617,5.9256737 Z M 2.1688005,5.848149 C 2.1006487,5.8336087 2.0534252,5.7962935 2.0226184,5.7326584 1.9902567,5.6658078 1.9896726,5.6196511 2.0203254,5.5521311 2.0520583,5.4822596 2.1105597,5.44266 2.1920291,5.4359034 2.3212948,5.4251902 2.4192793,5.5140697 2.4186158,5.6414524 2.4178178,5.7826349 2.3038599,5.8769729 2.1687897,5.848149 Z M 3.9313584,5.8244641 C 3.8689044,5.7982434 3.8138005,5.7445927 3.7843221,5.6812843 3.7294969,5.5635395 3.7487578,5.4518983 3.8401506,5.3576874 3.9337323,5.261222 4.0508063,5.2421508 4.172136,5.3036051 4.3689789,5.4033101 4.3847109,5.67545 4.200825,5.7999359 c -0.038123,0.025805 -0.06428,0.032165 -0.142464,0.034604 -0.052672,0.00155 -0.1098234,-0.00291 -0.1270032,-0.0101 z M 6.6548456,5.6754064 C 6.5645985,5.6331868 6.5155296,5.5143581 6.547871,5.4163598 6.5792863,5.3211733 6.7027063,5.2548814 6.7998229,5.2810327 c 0.1020564,0.027479 0.1533956,0.096624 0.1533956,0.2065932 0,0.1578619 -0.1544906,0.2550897 -0.2983729,0.1877805 z M 5.3788721,5.6177002 C 5.358008,5.6084192 5.32671,5.5854296 5.3093226,5.5665945 5.2825287,5.5375695 5.2777089,5.5201312 5.2777089,5.4521931 c 0,-0.06805 0.00478,-0.085269 0.031614,-0.1139916 0.065997,-0.07063 0.1422594,-0.087056 0.2240379,-0.048249 0.061197,0.029041 0.09199,0.084049 0.092048,0.164431 3.79e-5,0.052684 -0.00662,0.073327 -0.034136,0.1060441 -0.058155,0.069113 -0.1375753,0.090528 -0.2124007,0.057273 z M 5.8404332,5.368433 C 5.7603316,5.3364908 5.7139738,5.2614932 5.7139738,5.1638431 c 0,-0.1211999 0.08461,-0.2039205 0.2085786,-0.2039205 0.1686371,0 0.2621372,0.1800599 0.1704968,0.3283367 -0.047614,0.077043 -0.1661356,0.1146586 -0.252616,0.080174 z M 2.8561259,5.2910892 C 2.7991819,5.2759544 2.7348021,5.2269147 2.7106904,5.180288 2.6635944,5.089212 2.7053104,4.9467732 2.7927024,4.9002706 c 0.054793,-0.029156 0.1522876,-0.030468 0.2105261,-0.00283 0.087854,0.04169 0.13466,0.1907354 0.088038,0.2803421 -0.043769,0.084122 -0.1508144,0.1357056 -0.2351399,0.1133084 z m 4.3509965,0.00781 C 7.2064999,5.2910892 7.1847851,5.2812523 7.1587054,5.2770385 7.05088,5.2596138 6.9655748,5.1547689 6.9661406,5.0403796 c 0.00119,-0.221911 0.26317,-0.3330288 0.41868,-0.177517 0.082037,0.082038 0.093504,0.2038131 0.029478,0.3130711 -0.031575,0.053883 -0.1132427,0.1055397 -0.1668538,0.1055397 -0.014618,0 -0.029437,0.00711 -0.032946,0.015811 -0.00397,0.0098 -0.00675,0.010415 -0.00737,0.00159 z M 2.122949,5.2593226 C 1.9916702,5.1933676 1.9870282,4.9959506 2.115319,4.9350721 2.2444746,4.8737831 2.3795707,4.9574931 2.3797499,5.0989175 2.3798434,5.1677715 2.3430149,5.2260442 2.2802039,5.256451 2.2165849,5.287248 2.1798593,5.287919 2.1229456,5.259321 Z M 4.7642187,5.200853 C 4.64406,5.1174912 4.6468263,4.9373857 4.7696599,4.8463714 c 0.027284,-0.020217 0.054351,-0.026454 0.1147919,-0.026454 0.067675,0 0.085989,0.00526 0.1268699,0.036441 0.1076488,0.082109 0.1114384,0.2328635 0.00828,0.3298844 -0.034613,0.032557 -0.051205,0.038125 -0.1248487,0.0419 -0.074088,0.0038 -0.090757,4.046e-4 -0.1305458,-0.02729 z M 3.6152248,5.1156595 C 3.4492226,5.0494078 3.3986432,4.8419027 3.5174495,4.7145353 3.6005747,4.6254184 3.7494966,4.6104769 3.838289,4.6823447 c 0.069055,0.05589 0.09471,0.096306 0.1019591,0.1606297 0.00952,0.084355 -0.0055,0.1424721 -0.049791,0.1929298 -0.072389,0.082445 -0.1860019,0.1153676 -0.2752323,0.079755 z M 0.54835052,5.0048346 C 0.42070823,4.9708297 0.3003066,4.8682207 0.24234315,4.7440458 0.21177527,4.6785609 0.20692621,4.6525549 0.20692621,4.5540986 c 0,-0.1031444 0.00394,-0.1220725 0.0410967,-0.1975523 0.0487827,-0.099093 0.12825165,-0.1768255 0.22856414,-0.2235734 0.0608726,-0.028368 0.0890369,-0.033442 0.1855719,-0.033442 0.0965348,0 0.12469902,0.00508 0.18557189,0.033442 0.10031249,0.046748 0.17978106,0.12448 0.22856416,0.2235734 0.037235,0.075638 0.041079,0.094195 0.040898,0.1975523 -1.687e-4,0.097951 -0.00518,0.1247987 -0.035418,0.1899472 -0.04479,0.096496 -0.12086963,0.1750531 -0.21688073,0.2239439 -0.0615877,0.031363 -0.0941371,0.03921 -0.1770348,0.042689 -0.0558646,0.00235 -0.11864316,-1.744e-4 -0.13950899,-0.00585 z M 6.3399185,4.9649946 C 6.1651082,4.9278036 6.0874975,4.7587857 6.1705124,4.5960651 6.2178778,4.5032187 6.350787,4.4508428 6.4532306,4.4846526 c 0.060232,0.019874 0.1322809,0.083218 0.1541239,0.1354966 0.034035,0.08146 0.013562,0.2103387 -0.043434,0.2733109 -0.047998,0.053036 -0.1531366,0.086613 -0.224002,0.071534 z M 5.2650642,4.8101521 C 5.1398151,4.7588954 5.0800316,4.6494028 5.1083333,4.5231086 c 0.040951,-0.1827281 0.2654289,-0.253429 0.4078215,-0.128447 0.079136,0.069458 0.096059,0.2232991 0.035134,0.3193675 -0.057135,0.090093 -0.1910583,0.1350663 -0.2862246,0.096123 z M 2.2276343,4.7804124 C 2.1187389,4.7267166 2.1107636,4.5731365 2.213615,4.5104315 c 0.077297,-0.047129 0.1807248,-0.023555 0.2186787,0.049843 0.045026,0.087068 0.010554,0.1864961 -0.077374,0.2232394 -0.05316,0.022212 -0.077133,0.021628 -0.1272841,-0.00311 z M 2.7745463,4.673341 c -0.087448,-0.076782 -0.087458,-0.1990992 -2.36e-5,-0.2758693 0.083744,-0.07353 0.2286417,-0.045657 0.2754511,0.052986 0.026832,0.056546 0.026832,0.1133304 0,0.1698759 -0.029114,0.061357 -0.084016,0.091992 -0.1649607,0.09205 -0.055713,3.79e-5 -0.072857,-0.00601 -0.1104708,-0.039043 z M 7.5025852,4.6632848 C 7.3331282,4.5863152 7.2839222,4.3607822 7.405577,4.2186544 7.4642687,4.1500867 7.5335373,4.1187263 7.6270853,4.1183718 7.8770029,4.1173777 8.0060533,4.426056 7.8300814,4.6038518 7.749797,4.684969 7.607271,4.710833 7.5025852,4.6632848 Z M 3.4453232,4.4435046 C 3.3571542,4.3930863 3.3159921,4.3045252 3.3371408,4.2107528 c 0.014617,-0.064838 0.048566,-0.1067669 0.114057,-0.1408911 0.1022183,-0.053264 0.2264615,-0.01151 0.2776441,0.093322 0.03297,0.067522 0.031725,0.1280906 -0.00402,0.1956782 C 3.6705071,4.4615705 3.543938,4.499899 3.4453164,4.4435043 Z M 6.665557,4.3443889 C 6.5575958,4.2909502 6.5055066,4.1962175 6.5128292,4.0666276 c 0.00567,-0.1003483 0.044718,-0.1692745 0.1266003,-0.2234603 0.04683,-0.030992 0.064335,-0.034883 0.1568702,-0.034883 0.095189,0 0.1088799,0.00327 0.1589909,0.038014 0.1113387,0.077191 0.1545322,0.2357114 0.098116,0.3600878 -0.033646,0.074179 -0.056261,0.097879 -0.1282199,0.1343689 -0.078083,0.039597 -0.1839849,0.041079 -0.25963,0.00364 z M 5.658647,4.214096 C 5.5514723,4.1742086 5.4744791,4.0615137 5.473989,3.9438144 5.4733915,3.7978253 5.5697707,3.6839435 5.7173809,3.6562531 c 0.1110743,-0.020838 0.2525168,0.05608 0.3015209,0.1639694 0.057469,0.1265252 0.0091,0.294529 -0.1051456,0.3651576 C 5.8425007,4.229434 5.7329835,4.2417623 5.658647,4.214096 Z M 1.5245451,4.2009926 C 1.4234183,4.1649207 1.3591999,4.1049557 1.2999201,3.9912473 1.2580311,3.9108986 1.2572744,3.7587541 1.2983272,3.6691793 1.4053347,3.4356387 1.6955344,3.3646994 1.9014623,3.5217406 2.0513087,3.6360168 2.0963638,3.8620757 2.0017986,4.0251587 1.9603898,4.0965744 1.8680368,4.1752302 1.7972965,4.1993339 c -0.070993,0.02419 -0.2072502,0.025018 -0.2727412,0.00159 z M 7.8383104,3.8920611 C 7.6835237,3.8412726 7.5943921,3.720642 7.5944308,3.5619878 7.5944749,3.372196 7.7346002,3.2336769 7.9269098,3.2333145 c 0.1934357,-3.983e-4 0.3313972,0.135757 0.3328194,0.3283786 10e-4,0.1356815 -0.064767,0.2441507 -0.1853257,0.3056568 -0.056196,0.02867 -0.1834367,0.041987 -0.2360931,0.024711 z M 2.5047762,3.73548 C 2.4819292,3.7281516 2.4375909,3.699595 2.4062464,3.6720042 2.2276722,3.5148176 2.2551018,3.2438149 2.4618898,3.1222547 c 0.051326,-0.030172 0.07249,-0.034734 0.1602972,-0.034543 0.078998,1.681e-4 0.112245,0.00615 0.1517439,0.027344 0.1154211,0.061896 0.182623,0.1737688 0.183081,0.3047825 C 2.9576094,3.6124156 2.8181042,3.7530239 2.6291888,3.7500826 2.5836081,3.7492864 2.5276216,3.7427942 2.5047762,3.7354859 Z M 4.7845688,3.6682244 C 4.7264998,3.6379474 4.7051361,3.6141046 4.6821534,3.5539246 4.6131917,3.3733492 4.7993052,3.2076614 4.9765987,3.2917935 5.0799702,3.3408476 5.1204112,3.4897599 5.0578516,3.5909844 5.004496,3.6773132 4.8731797,3.7144289 4.7845688,3.6682244 Z M 6.9911534,3.5683105 C 6.7720048,3.4973451 6.69259,3.2159636 6.8393974,3.0306047 6.9660519,2.8706878 7.2444821,2.8764271 7.3642751,3.041418 7.4188861,3.116632 7.4389141,3.1892889 7.4305321,3.281745 7.4196391,3.4019056 7.3597161,3.4905206 7.252688,3.5447563 7.174389,3.5844323 7.0699842,3.5938343 6.9911526,3.5683063 Z M 3.3872301,3.5288868 C 3.1653792,3.4327922 3.159353,3.1162167 3.3772533,3.0041391 c 0.071692,-0.036877 0.186512,-0.03287 0.26382,0.0092 0.090708,0.049369 0.1508179,0.1488607 0.1508179,0.2496309 0,0.1021963 -0.076092,0.2195649 -0.1700069,0.2622206 -0.062566,0.028419 -0.1735263,0.030163 -0.2346439,0.00369 z m 0.7584083,-0.00828 c -0.03289,-0.016628 -0.072081,-0.051225 -0.094358,-0.083284 -0.032585,-0.046887 -0.038106,-0.066423 -0.038106,-0.1348472 0,-0.068508 0.00546,-0.087762 0.037936,-0.1338772 0.10461,-0.148524 0.3184994,-0.149002 0.4124075,-9.918e-4 0.077885,0.122813 0.033356,0.2933419 -0.09251,0.3542727 -0.073078,0.035377 -0.1537255,0.034898 -0.2253699,-0.00139 z M 5.9223415,3.4115879 C 5.6729013,3.2982756 5.6629143,2.931294 5.9059121,2.8081562 6.1377683,2.6906661 6.3963067,2.8481732 6.3966927,3.1071478 6.3968794,3.2455495 6.3270843,3.3540724 6.2008135,3.4116336 6.1324055,3.4428188 5.9910343,3.442795 5.9223352,3.4115845 Z M 1.1575056,3.2408458 C 0.92392918,3.1751937 0.80602077,2.9045953 0.91443824,2.6829991 1.0047936,2.4983193 1.2484167,2.4146947 1.4329989,2.5050044 c 0.084638,0.041409 0.1746452,0.1387443 0.2016882,0.2181073 0.030755,0.090266 0.026256,0.2242507 -0.010156,0.3024548 -0.079496,0.170728 -0.2863242,0.2660678 -0.4670232,0.2152793 z M 4.8705829,2.9299895 C 4.7858093,2.878301 4.7588141,2.7878241 4.8017188,2.6991951 c 0.033264,-0.068717 0.082283,-0.098554 0.1618086,-0.098492 0.076007,6.09e-5 0.1318559,0.03213 0.1602891,0.092048 0.060278,0.127027 -0.020862,0.2620435 -0.1574095,0.261926 -0.032596,-2.6e-5 -0.072053,-0.010196 -0.095824,-0.024688 z M 2.1543089,2.7791555 C 2.0064761,2.7403353 1.9115466,2.6313025 1.8982878,2.4851005 1.889924,2.3927556 1.9099375,2.3199981 1.9643085,2.2450997 2.0868789,2.0762795 2.3696864,2.0758473 2.498157,2.2443037 2.6238934,2.4091551 2.5669957,2.6629342 2.3845301,2.751115 2.3243044,2.7802212 2.2109186,2.7940396 2.1543089,2.7791758 Z M 4.4230555,2.7155763 C 4.3642516,2.6967576 4.3246763,2.6627148 4.2983166,2.6082602 4.2248878,2.4565758 4.3209567,2.3039116 4.4898369,2.3039116 c 0.080876,0 0.1230142,0.02318 0.1714127,0.094288 0.039771,0.058436 0.039748,0.1693042 -3.97e-5,0.228353 -0.049767,0.073851 -0.1585166,0.1145031 -0.2381486,0.089023 z M 7.1218053,2.589328 C 7.0165145,2.5621375 6.9080467,2.4673014 6.8606994,2.3610367 c -0.036833,-0.082668 -0.035196,-0.2246829 0.00362,-0.3138694 0.03635,-0.083519 0.1412544,-0.1821966 0.2234791,-0.2102134 0.076076,-0.025922 0.1982784,-0.026002 0.2740668,-1.744e-4 0.08015,0.02731 0.176677,0.1170024 0.2189892,0.2034885 0.049259,0.1006849 0.049365,0.2358726 1.867e-4,0.3362388 -0.037984,0.077634 -0.1059319,0.1457201 -0.1863943,0.1867686 -0.058242,0.029714 -0.2046314,0.043689 -0.2729159,0.026058 z M 3.032386,2.5710271 C 2.9535807,2.5493906 2.9006595,2.5088916 2.8593359,2.4385954 2.8308669,2.3901668 2.8245126,2.3641772 2.8245126,2.296171 c 0,-0.070525 0.00583,-0.092608 0.038271,-0.1450869 0.1371768,-0.221879 0.4568149,-0.1762104 0.525552,0.075087 C 3.4446978,2.4322287 3.2420279,2.62858 3.032386,2.5710271 Z M 3.7470829,2.5518099 C 3.669297,2.5043752 3.6151272,2.4115046 3.6149163,2.3252155 c -9.34e-5,-0.042848 0.034616,-0.1180498 0.073311,-0.1587876 0.05179,-0.054522 0.1023278,-0.075661 0.1810712,-0.075733 0.08368,-7.47e-5 0.135666,0.025924 0.192548,0.0963 0.031938,0.039515 0.039595,0.061835 0.043785,0.1276364 0.00722,0.1136628 -0.033079,0.1889951 -0.126728,0.2367925 -0.062715,0.032008 -0.1796457,0.032202 -0.2318201,3.984e-4 z M 6.1026222,2.4484867 C 5.9827822,2.4185281 5.8834253,2.3376796 5.8327804,2.2289137 5.8089693,2.1777747 5.80277,2.1434153 5.8028917,2.0632319 5.8030659,1.8961301 5.8712364,1.7834153 6.0145409,1.7128662 c 0.073516,-0.036191 0.096236,-0.041313 0.1794843,-0.040461 0.1619047,0.00159 0.2928005,0.086052 0.358594,0.2312126 0.038946,0.085922 0.036945,0.2383997 -0.00425,0.3234699 -0.078995,0.1631651 -0.2797798,0.262892 -0.4457487,0.2213994 z M 5.061474,2.3174033 C 5.023604,2.2795333 5.01848,2.2665733 5.01848,2.2086532 c 0,-0.057922 0.00511,-0.07088 0.042994,-0.1087498 0.03508,-0.035081 0.052653,-0.042994 0.095467,-0.042994 0.1052031,0 0.1650267,0.056486 0.1650267,0.1558226 0,0.053281 -0.00585,0.06753 -0.042994,0.1046715 -0.03787,0.03787 -0.050831,0.042994 -0.1087496,0.042994 -0.05792,0 -0.07088,-0.00511 -0.1087501,-0.042994 z M 4.7411804,2.0607605 C 4.6202488,1.9971176 4.6071039,1.8300676 4.716708,1.7497688 c 0.047844,-0.035052 0.1336683,-0.040945 0.1870658,-0.012844 0.1209309,0.063643 0.1340763,0.2306928 0.024472,0.3109919 -0.047843,0.035052 -0.1336684,0.040945 -0.1870654,0.012844 z M 1.9498589,1.8806789 C 1.7825799,1.8047272 1.7068154,1.5914987 1.7887114,1.4271552 c 0.041003,-0.082285 0.1181195,-0.149257 0.1997905,-0.1735101 0.079234,-0.02353 0.1259434,-0.023548 0.2046096,-7.47e-5 0.1323637,0.039489 0.2197859,0.1528593 0.2302091,0.2985397 0.00568,0.07946 0.00257,0.095165 -0.033453,0.1683304 C 2.3268286,1.8484893 2.2338541,1.9053616 2.0883267,1.9048895 2.0316977,1.904709 1.984663,1.8964895 1.9498594,1.8806825 Z m 2.28448,-0.067194 C 4.172062,1.7711005 4.1431035,1.7244741 4.1365239,1.6559999 4.1245557,1.5314304 4.2034426,1.4377154 4.3290474,1.4272985 c 0.053445,-0.00444 0.077907,1.992e-4 0.1177273,0.022656 0.1370438,0.077023 0.1385594,0.2887958 0.00261,0.3652015 C 4.3838347,1.851999 4.2898501,1.851268 4.234336,1.813566 Z M 2.834748,1.6708079 C 2.7419073,1.6245439 2.6790115,1.525976 2.6791609,1.4269798 2.6793352,1.314715 2.7442055,1.2097369 2.8452747,1.1581737 c 0.064233,-0.032768 0.1849924,-0.032886 0.2484541,-1.992e-4 0.1794923,0.092327 0.2154291,0.3336956 0.070205,0.471528 -0.08395,0.079678 -0.2183839,0.096565 -0.3291852,0.041349 z m 0.7864211,0.01177 C 3.4844838,1.6080851 3.437286,1.4534216 3.5135721,1.329987 3.5773363,1.226813 3.7238814,1.1807223 3.8241916,1.2322934 c 0.098785,0.050788 0.1447248,0.1228828 0.1447248,0.2271183 0,0.1348272 -0.095079,0.2331183 -0.2321171,0.2399608 -0.054126,0.00271 -0.089202,-0.00239 -0.1156302,-0.016788 z M 5.9352675,1.2812856 C 5.8013185,1.2366286 5.6882909,1.1395044 5.635001,1.0232687 5.5949423,0.93589442 5.5945321,0.73607215 5.634203,0.65011003 5.6755938,0.56048737 5.7767751,0.46044184 5.8691975,0.41775031 c 0.068215,-0.03151 0.093827,-0.0363452 0.1924919,-0.0363452 0.096812,0 0.1245258,0.005023 0.1855721,0.0336428 0.1004754,0.0471003 0.1798424,0.12480266 0.228564,0.22377086 0.03718,0.075523 0.041097,0.0943737 0.041097,0.19781856 0,0.10344293 -0.00393,0.12229551 -0.041097,0.19781907 -0.077734,0.1578976 -0.216805,0.2494917 -0.3926967,0.2586341 -0.060682,0.00315 -0.1163512,-0.00119 -0.1478928,-0.011809 z"
       id="path1428"
       sodipodi:nodetypes="ssssssssssscscssssssssscsssssccssssssssssssccsscsssssscsssscssssscssssccssssssscsssssssssssssscssssssscssssssssssssssssssssssssssscscssscccsssssscsssssccssscsssssssssssssssssssssssssssssssssssssssssscsssssssssssssssssssssssscscsssccsscssssssscccsssssssssssssscsssscccssscsccssssssssssssssssssscsccsccssssssscssssscsccssscssssssssssssscscssssssssssssssssssssssssscsscscccsscsccssssssscscsscsscscc" />
  </g>
</svg>
