<?xml version="1.0" encoding="UTF-8" standalone="no"?>
<!-- Created with Inkscape (http://www.inkscape.org/) -->

<svg
   xmlns:dc="http://purl.org/dc/elements/1.1/"
   xmlns:cc="http://creativecommons.org/ns#"
   xmlns:rdf="http://www.w3.org/1999/02/22-rdf-syntax-ns#"
   xmlns:svg="http://www.w3.org/2000/svg"
   xmlns="http://www.w3.org/2000/svg"
   xmlns:sodipodi="http://sodipodi.sourceforge.net/DTD/sodipodi-0.dtd"
   xmlns:inkscape="http://www.inkscape.org/namespaces/inkscape"
   width="200"
   height="200"
   viewBox="0 0 52.916666 52.916668"
   version="1.1"
   id="svg8"
   inkscape:version="0.92.3 (2405546, 2018-03-11)"
   sodipodi:docname="logo.svg">
  <defs
     id="defs2" />
  <sodipodi:namedview
     id="base"
     pagecolor="#ffffff"
     bordercolor="#666666"
     borderopacity="1.0"
     inkscape:pageopacity="0.0"
     inkscape:pageshadow="2"
     inkscape:zoom="2.8"
     inkscape:cx="185.54638"
     inkscape:cy="92.523781"
     inkscape:document-units="mm"
     inkscape:current-layer="layer1"
     showgrid="false"
     inkscape:window-width="2560"
     inkscape:window-height="1320"
     inkscape:window-x="0"
     inkscape:window-y="27"
     inkscape:window-maximized="1"
     units="px" />
  <metadata
     id="metadata5">
    <rdf:RDF>
      <cc:Work
         rdf:about="">
        <dc:format>image/svg+xml</dc:format>
        <dc:type
           rdf:resource="http://purl.org/dc/dcmitype/StillImage" />
        <dc:title></dc:title>
      </cc:Work>
    </rdf:RDF>
  </metadata>
  <g
     inkscape:label="Layer 1"
     inkscape:groupmode="layer"
     id="layer1"
     transform="translate(0,-244.08332)">
    <g
       style="clip-rule:evenodd;fill:#000000;fill-rule:evenodd;stroke-linejoin:round;stroke-miterlimit:1.41420996"
       id="g1183"
       transform="matrix(0.46560535,0,0,0.46560535,1.726291,248.10312)">
      <g
         id="g1053"
         transform="translate(-49.5899,-60.2068)"
         style="fill:#000000">
        <g
   id="g1051"
   transform="matrix(0.462821,0,0,0.438949,335.43,161.318)"
   style="fill:#000000">
            <g
   id="g817"
   transform="translate(-617.603,-230.348)"
   style="fill:#000000">
                <path
   id="path815"
   style="fill:#000000;fill-rule:nonzero"
   d="m 199.623,140.796 0.003,0.016 v -0.016 z"
   inkscape:connector-curvature="0" />

            </g>

            <g
   id="g821"
   transform="translate(-617.603,-230.348)"
   style="fill:#000000">
                <path
   id="path819"
   style="fill:#000000;fill-rule:nonzero"
   d="m 95.075,117.6 v 0.015 l 0.002,-0.015 z"
   inkscape:connector-curvature="0" />

            </g>

            <g
   id="g825"
   transform="translate(-617.603,-230.348)"
   style="fill:#000000">
                <path
   id="path823"
   style="fill:#000000;fill-rule:nonzero"
   d="m 57.252,157.029 v 0.01 l 10e-4,-0.01 z"
   inkscape:connector-curvature="0" />

            </g>

            <g
   id="g829"
   transform="translate(-617.603,-230.348)"
   style="fill:#000000">
                <path
   id="path827"
   style="fill:#000000;fill-rule:nonzero"
   d="m 76.931,141.1 v -0.008 z"
   inkscape:connector-curvature="0" />

            </g>

            <g
   id="g833"
   transform="translate(-617.603,-230.348)"
   style="fill:#000000">
                <path
   id="path831"
   style="fill:#000000;fill-rule:nonzero"
   d="m 175.971,131.783 0.002,0.008 v -0.008 z"
   inkscape:connector-curvature="0" />

            </g>

            <g
   id="g837"
   transform="translate(-617.603,-230.348)"
   style="fill:#000000">
                <path
   id="path835"
   style="fill:#000000;fill-rule:nonzero"
   d="m 137.799,54.796 c 1.066,1.536 3.09,2.241 4.92,1.7 0.459,-0.135 0.892,-0.345 1.291,-0.62 1.996,-1.41 2.49,-4.184 1.098,-6.178 -0.825,-1.188 -2.209,-1.897 -3.707,-1.897 -0.913,0 -1.78,0.269 -2.508,0.776 -2.012,1.407 -2.504,4.198 -1.094,6.219"
   inkscape:connector-curvature="0" />

            </g>

            <g
   id="g841"
   transform="translate(-617.603,-230.348)"
   style="fill:#000000">
                <path
   id="path839"
   style="fill:#000000;fill-rule:nonzero"
   d="m 126.408,43.661 c 0.074,1.388 0.68,2.646 1.699,3.539 1.342,1.227 3.211,1.649 4.936,1.144 0.927,-0.277 1.756,-0.803 2.39,-1.52 0.93,-1.03 1.397,-2.353 1.323,-3.735 -0.077,-1.382 -0.684,-2.654 -1.715,-3.582 -0.904,-0.811 -2.119,-1.259 -3.418,-1.259 -1.522,0 -2.938,0.61 -3.885,1.675 -0.934,1.021 -1.402,2.345 -1.33,3.738"
   inkscape:connector-curvature="0" />

            </g>

            <g
   id="g845"
   transform="translate(-617.603,-230.348)"
   style="fill:#000000">
                <path
   id="path843"
   style="fill:#000000;fill-rule:nonzero"
   d="m 115.026,41.1 c 0.899,0.496 1.911,0.759 2.921,0.759 0.576,0 1.152,-0.083 1.711,-0.249 1.533,-0.451 2.797,-1.466 3.555,-2.859 0.787,-1.411 0.974,-3.035 0.533,-4.582 -0.444,-1.552 -1.463,-2.834 -2.871,-3.607 -0.83,-0.454 -1.795,-0.695 -2.791,-0.695 -2.259,0 -4.385,1.198 -5.418,3.052 -1.584,2.902 -0.529,6.575 2.36,8.181"
   inkscape:connector-curvature="0" />

            </g>

            <g
   id="g849"
   transform="translate(-617.603,-230.348)"
   style="fill:#000000">
                <path
   id="path847"
   style="fill:#000000;fill-rule:nonzero"
   d="m 98.431,37.582 c 1.227,0.34 2.598,0.333 3.863,-0.035 2.333,-0.692 4.127,-2.493 4.793,-4.82 0.511,-1.797 0.291,-3.695 -0.619,-5.343 -0.911,-1.64 -2.406,-2.83 -4.212,-3.351 -0.571,-0.161 -1.174,-0.244 -1.784,-0.244 -3.146,0 -6.058,2.142 -6.918,5.093 -1.034,3.703 1.151,7.611 4.877,8.7"
   inkscape:connector-curvature="0" />

            </g>

            <g
   id="g853"
   transform="translate(-617.603,-230.348)"
   style="fill:#000000">
                <path
   id="path851"
   style="fill:#000000;fill-rule:nonzero"
   d="m 78.356,37.871 c 0.944,0.052 1.859,-0.062 2.752,-0.324 3.333,-0.985 5.691,-3.972 5.864,-7.434 0.116,-2.203 -0.637,-4.317 -2.124,-5.954 -1.468,-1.62 -3.468,-2.566 -5.633,-2.666 l -0.403,-0.011 c -4.299,0 -7.991,3.499 -8.23,7.801 -0.216,4.511 3.272,8.367 7.774,8.588"
   inkscape:connector-curvature="0" />

            </g>

            <g
   id="g857"
   transform="translate(-617.603,-230.348)"
   style="fill:#000000">
                <path
   id="path855"
   style="fill:#000000;fill-rule:nonzero"
   d="m 44.358,35.782 c 0.815,4.586 4.791,7.914 9.453,7.915 h 10e-4 c 0.557,0 1.119,-0.05 1.674,-0.147 0.351,-0.06 0.698,-0.142 1.035,-0.24 4.678,-1.382 7.574,-6.052 6.73,-10.864 -0.832,-4.573 -4.807,-7.898 -9.449,-7.898 -0.555,0 -1.116,0.049 -1.667,0.146 -5.201,0.974 -8.694,5.948 -7.777,11.088"
   inkscape:connector-curvature="0" />

            </g>

            <g
   id="g861"
   transform="translate(-617.603,-230.348)"
   style="fill:#000000">
                <path
   id="path859"
   style="fill:#000000;fill-rule:nonzero"
   d="m 139.439,71.806 c 0.924,-1.026 1.391,-2.354 1.314,-3.74 -0.076,-1.383 -0.685,-2.646 -1.715,-3.558 -0.915,-0.832 -2.134,-1.286 -3.441,-1.286 -1.508,0 -2.908,0.603 -3.836,1.651 -0.933,1.026 -1.404,2.349 -1.334,3.738 0.063,1.376 0.662,2.643 1.69,3.575 0.962,0.854 2.195,1.33 3.47,1.331 0.5,0 1,-0.073 1.486,-0.217 0.911,-0.267 1.727,-0.784 2.366,-1.494"
   inkscape:connector-curvature="0" />

            </g>

            <g
   id="g865"
   transform="translate(-617.603,-230.348)"
   style="fill:#000000">
                <path
   id="path863"
   style="fill:#000000;fill-rule:nonzero"
   d="m 127.748,59.14 c -0.453,-1.55 -1.482,-2.839 -2.893,-3.619 -0.836,-0.457 -1.802,-0.701 -2.796,-0.701 -2.26,0 -4.334,1.18 -5.413,3.082 -1.568,2.918 -0.495,6.594 2.403,8.176 0.898,0.494 1.9,0.753 2.898,0.753 0.574,0 1.149,-0.083 1.707,-0.247 1.539,-0.456 2.799,-1.473 3.545,-2.868 0.795,-1.412 0.985,-3.028 0.549,-4.576"
   inkscape:connector-curvature="0" />

            </g>

            <g
   id="g869"
   transform="translate(-617.603,-230.348)"
   style="fill:#000000">
                <path
   id="path867"
   style="fill:#000000;fill-rule:nonzero"
   d="m 111.088,57.68 c 0.502,-1.793 0.278,-3.694 -0.633,-5.346 -0.915,-1.633 -2.41,-2.814 -4.204,-3.324 -0.582,-0.167 -1.186,-0.25 -1.799,-0.25 -3.148,0 -6.045,2.134 -6.885,5.076 -1.063,3.72 1.102,7.615 4.825,8.686 1.276,0.356 2.644,0.354 3.916,-0.021 2.314,-0.686 4.101,-2.488 4.78,-4.821"
   inkscape:connector-curvature="0" />

            </g>

            <g
   id="g873"
   transform="translate(-617.603,-230.348)"
   style="fill:#000000">
                <path
   id="path871"
   style="fill:#000000;fill-rule:nonzero"
   d="m 90.968,55.076 c 0.118,-2.193 -0.63,-4.3 -2.107,-5.929 -1.47,-1.622 -3.473,-2.572 -5.644,-2.675 -0.146,-0.008 -0.287,-0.012 -0.425,-0.012 -4.22,0 -7.974,3.558 -8.199,7.77 -0.231,4.508 3.254,8.369 7.77,8.605 0.159,0.009 0.315,0.013 0.468,0.013 0.774,0 1.542,-0.112 2.289,-0.331 3.308,-0.978 5.659,-3.968 5.848,-7.441"
   inkscape:connector-curvature="0" />

            </g>

            <g
   id="g877"
   transform="translate(-617.603,-230.348)"
   style="fill:#000000">
                <path
   id="path875"
   style="fill:#000000;fill-rule:nonzero"
   d="m 57.775,49.502 c -0.552,0 -1.108,0.049 -1.656,0.146 -5.19,0.897 -8.675,5.878 -7.774,11.102 0.448,2.524 1.852,4.725 3.956,6.19 2.082,1.455 4.652,2.021 7.159,1.571 0.374,-0.065 0.725,-0.15 1.076,-0.251 4.655,-1.375 7.539,-6.041 6.707,-10.852 -0.835,-4.577 -4.817,-7.906 -9.468,-7.906"
   inkscape:connector-curvature="0" />

            </g>

            <g
   id="g881"
   transform="translate(-617.603,-230.348)"
   style="fill:#000000">
                <path
   id="path879"
   style="fill:#000000;fill-rule:nonzero"
   d="m 20.013,75.151 c 1.763,4.151 5.801,6.835 10.286,6.835 1.061,0 2.117,-0.152 3.142,-0.455 0.424,-0.124 0.852,-0.28 1.273,-0.458 2.777,-1.188 4.919,-3.372 6.029,-6.152 1.112,-2.765 1.076,-5.794 -0.099,-8.534 -1.762,-4.145 -5.81,-6.821 -10.317,-6.821 -1.504,0 -2.977,0.302 -4.38,0.897 -5.678,2.418 -8.341,9.007 -5.934,14.688"
   inkscape:connector-curvature="0" />

            </g>

            <g
   id="g885"
   transform="translate(-617.603,-230.348)"
   style="fill:#000000">
                <path
   id="path883"
   style="fill:#000000;fill-rule:nonzero"
   d="m 136.064,83.098 c -0.842,-0.467 -1.816,-0.713 -2.822,-0.713 -2.254,0 -4.36,1.196 -5.367,3.046 -1.61,2.911 -0.557,6.578 2.343,8.183 1.418,0.801 3.081,0.988 4.627,0.53 1.524,-0.45 2.803,-1.476 3.603,-2.887 1.581,-2.893 0.514,-6.56 -2.384,-8.159"
   inkscape:connector-curvature="0" />

            </g>

            <g
   id="g889"
   transform="translate(-617.603,-230.348)"
   style="fill:#000000">
                <path
   id="path887"
   style="fill:#000000;fill-rule:nonzero"
   d="m 109.363,86.763 c 0.908,1.633 2.401,2.817 4.202,3.337 0.625,0.173 1.277,0.262 1.929,0.262 0.68,0 1.353,-0.097 2,-0.287 2.33,-0.687 4.117,-2.489 4.779,-4.821 1.043,-3.732 -1.121,-7.628 -4.822,-8.676 -0.59,-0.17 -1.2,-0.255 -1.819,-0.255 -3.128,0 -6.021,2.129 -6.877,5.065 -0.523,1.808 -0.306,3.718 0.608,5.375"
   inkscape:connector-curvature="0" />

            </g>

            <g
   id="g893"
   transform="translate(-617.603,-230.348)"
   style="fill:#000000">
                <path
   id="path891"
   style="fill:#000000;fill-rule:nonzero"
   d="m 102.179,82.632 c 0.222,-4.513 -3.272,-8.377 -7.791,-8.607 l -0.387,-0.01 c -4.238,0 -7.999,3.557 -8.211,7.769 -0.241,4.513 3.242,8.382 7.762,8.626 l 0.402,0.009 c 0.8,0 1.587,-0.112 2.34,-0.335 3.321,-0.981 5.686,-3.975 5.885,-7.452"
   inkscape:connector-curvature="0" />

            </g>

            <g
   id="g897"
   transform="translate(-617.603,-230.348)"
   style="fill:#000000">
                <path
   id="path895"
   style="fill:#000000;fill-rule:nonzero"
   d="m 68.995,96.235 c 0.552,0 1.11,-0.05 1.658,-0.146 0.36,-0.062 0.705,-0.145 1.045,-0.247 4.69,-1.381 7.578,-6.051 6.723,-10.863 -0.821,-4.591 -4.793,-7.925 -9.446,-7.925 -0.555,0 -1.117,0.049 -1.668,0.147 -5.191,0.924 -8.668,5.92 -7.751,11.138 0.819,4.573 4.789,7.896 9.439,7.896"
   inkscape:connector-curvature="0" />

            </g>

            <g
   id="g901"
   transform="translate(-617.603,-230.348)"
   style="fill:#000000">
                <path
   id="path899"
   style="fill:#000000;fill-rule:nonzero"
   d="m 51.925,102.529 c 1.125,-2.79 1.098,-5.835 -0.077,-8.575 -1.746,-4.07 -5.927,-6.804 -10.404,-6.804 -1.493,0 -2.939,0.298 -4.298,0.885 -2.766,1.161 -4.902,3.321 -6.024,6.085 -1.132,2.782 -1.102,5.84 0.083,8.611 1.77,4.145 5.816,6.822 10.31,6.822 h 10e-4 c 1.068,0 2.134,-0.154 3.167,-0.459 0.416,-0.123 0.822,-0.268 1.228,-0.442 2.758,-1.167 4.894,-3.342 6.014,-6.123"
   inkscape:connector-curvature="0" />

            </g>

            <g
   id="g905"
   transform="translate(-617.603,-230.348)"
   style="fill:#000000">
                <path
   id="path903"
   style="fill:#000000;fill-rule:nonzero"
   d="m 23.737,111.29 c -2.47,-3.386 -6.445,-5.407 -10.635,-5.407 -1.254,0 -2.498,0.181 -3.7,0.537 -1.434,0.422 -2.785,1.09 -4.017,1.986 -2.825,2.057 -4.68,5.098 -5.223,8.565 -0.544,3.466 0.29,6.931 2.348,9.759 2.462,3.389 6.442,5.414 10.644,5.414 1.252,0 2.495,-0.179 3.696,-0.533 1.431,-0.42 2.779,-1.086 4.006,-1.976 5.845,-4.278 7.139,-12.508 2.881,-18.345"
   inkscape:connector-curvature="0" />

            </g>

            <g
   id="g909"
   transform="translate(-617.603,-230.348)"
   style="fill:#000000">
                <path
   id="path907"
   style="fill:#000000;fill-rule:nonzero"
   d="m 164.924,157.262 c -0.195,-2.283 -2.154,-4.074 -4.453,-4.074 -0.129,0 -0.258,0.006 -0.387,0.015 -1.898,0.161 -3.478,1.532 -3.931,3.413 -0.112,0.466 -0.147,0.935 -0.108,1.433 0.209,2.266 2.149,4.047 4.42,4.047 0.127,0 0.254,-0.006 0.383,-0.016 1.15,-0.093 2.248,-0.672 3.019,-1.586 0.782,-0.921 1.157,-2.07 1.057,-3.232"
   inkscape:connector-curvature="0" />

            </g>

            <g
   id="g913"
   transform="translate(-617.603,-230.348)"
   style="fill:#000000">
                <path
   id="path911"
   style="fill:#000000;fill-rule:nonzero"
   d="m 168.055,152.308 c -0.225,0.944 -0.186,1.924 0.117,2.84 0.862,2.652 3.844,4.187 6.533,3.314 1.243,-0.406 2.317,-1.359 2.948,-2.607 0.631,-1.252 0.756,-2.681 0.343,-3.925 -0.418,-1.325 -1.33,-2.392 -2.57,-3.017 -0.726,-0.373 -1.527,-0.568 -2.32,-0.568 -0.543,0 -1.08,0.091 -1.598,0.266 -1.748,0.552 -3.031,1.932 -3.453,3.697"
   inkscape:connector-curvature="0" />

            </g>

            <g
   id="g917"
   transform="translate(-617.603,-230.348)"
   style="fill:#000000">
                <path
   id="path915"
   style="fill:#000000;fill-rule:nonzero"
   d="m 180.578,144.088 c -0.379,1.553 -0.131,3.15 0.697,4.508 0.83,1.388 2.141,2.361 3.701,2.75 0.487,0.123 0.987,0.185 1.479,0.185 h 0.002 c 1.08,0 2.142,-0.3 3.076,-0.867 2.746,-1.664 3.713,-5.535 2.066,-8.283 -1.089,-1.785 -3.078,-2.898 -5.187,-2.898 -1.084,0 -2.148,0.293 -3.078,0.847 -1.397,0.844 -2.377,2.178 -2.756,3.758"
   inkscape:connector-curvature="0" />

            </g>

            <g
   id="g921"
   transform="translate(-617.603,-230.348)"
   style="fill:#000000">
                <path
   id="path919"
   style="fill:#000000;fill-rule:nonzero"
   d="m 199.625,139.777 c 1.822,0 3.553,-0.701 4.873,-1.973 2.67,-2.593 2.742,-7.25 0.152,-9.961 -1.322,-1.349 -3.115,-2.097 -5.039,-2.097 -1.849,0 -3.601,0.701 -4.935,1.972 -0.926,0.909 -1.586,2.075 -1.899,3.362 -0.57,2.369 0.094,4.822 1.776,6.56 1.304,1.344 3.058,2.102 4.937,2.135 l 0.133,1.022 h 0.002 z"
   inkscape:connector-curvature="0" />

            </g>

            <g
   id="g925"
   transform="translate(-617.603,-230.348)"
   style="fill:#000000">
                <path
   id="path923"
   style="fill:#000000;fill-rule:nonzero"
   d="m 218.219,119.123 c 2.416,-3.727 1.301,-8.933 -2.43,-11.371 -1.324,-0.852 -2.859,-1.303 -4.433,-1.303 -2.807,0 -5.383,1.399 -6.893,3.743 -0.506,0.782 -0.875,1.636 -1.096,2.544 -0.814,3.377 0.596,6.912 3.508,8.793 1.336,0.869 2.877,1.328 4.455,1.328 0.586,0 1.18,-0.062 1.764,-0.187 2.133,-0.463 3.955,-1.725 5.125,-3.547"
   inkscape:connector-curvature="0" />

            </g>

            <g
   id="g929"
   transform="translate(-617.603,-230.348)"
   style="fill:#000000">
                <path
   id="path927"
   style="fill:#000000;fill-rule:nonzero"
   d="m 223.273,81.791 c -1.053,-0.382 -2.148,-0.575 -3.258,-0.575 -4.023,0 -7.656,2.543 -9.035,6.327 -0.125,0.336 -0.225,0.678 -0.311,1.019 -1.142,4.742 1.456,9.584 6.045,11.257 1.039,0.372 2.127,0.562 3.229,0.562 4.037,0 7.67,-2.537 9.041,-6.312 1.758,-4.99 -0.803,-10.502 -5.711,-12.278"
   inkscape:connector-curvature="0" />

            </g>

            <g
   id="g933"
   transform="translate(-617.603,-230.348)"
   style="fill:#000000">
                <path
   id="path931"
   style="fill:#000000;fill-rule:nonzero"
   d="m 144.426,143.326 c -0.225,0.922 -0.187,1.889 0.109,2.795 0.426,1.316 1.344,2.381 2.58,3.006 0.733,0.371 1.512,0.56 2.321,0.56 0.547,0 1.094,-0.09 1.625,-0.265 1.258,-0.403 2.338,-1.35 2.97,-2.6 0.631,-1.24 0.756,-2.658 0.348,-3.885 -0.424,-1.318 -1.334,-2.388 -2.572,-3.025 -0.738,-0.381 -1.527,-0.576 -2.348,-0.576 -0.535,0 -1.07,0.086 -1.594,0.254 -1.724,0.574 -3.017,1.974 -3.439,3.736"
   inkscape:connector-curvature="0" />

            </g>

            <g
   id="g937"
   transform="translate(-617.603,-230.348)"
   style="fill:#000000">
                <path
   id="path935"
   style="fill:#000000;fill-rule:nonzero"
   d="m 161.35,142.33 c 1.535,0.373 3.215,0.127 4.578,-0.697 2.764,-1.68 3.701,-5.481 2.043,-8.301 -1.109,-1.791 -3.053,-2.873 -5.187,-2.873 -1.094,0 -2.164,0.301 -3.096,0.867 -1.387,0.842 -2.358,2.166 -2.736,3.736 -0.375,1.561 -0.125,3.163 0.709,4.504 0.822,1.391 2.128,2.366 3.689,2.764"
   inkscape:connector-curvature="0" />

            </g>

            <g
   id="g941"
   transform="translate(-617.603,-230.348)"
   style="fill:#000000">
                <path
   id="path939"
   style="fill:#000000;fill-rule:nonzero"
   d="m 175.973,130.756 c 1.846,0 3.586,-0.703 4.896,-1.98 1.282,-1.235 2.034,-3.028 2.067,-4.922 0.033,-1.901 -0.66,-3.729 -1.902,-5.012 -1.331,-1.375 -3.124,-2.133 -5.047,-2.133 -1.836,0 -3.571,0.699 -4.889,1.969 -0.955,0.935 -1.627,2.115 -1.939,3.402 -0.563,2.346 0.103,4.795 1.785,6.553 1.304,1.332 3.062,2.09 4.945,2.123 l 0.082,1.027 h 0.002 z"
   inkscape:connector-curvature="0" />

            </g>

            <g
   id="g945"
   transform="translate(-617.603,-230.348)"
   style="fill:#000000">
                <path
   id="path943"
   style="fill:#000000;fill-rule:nonzero"
   d="m 194.586,110.099 c 1.162,-1.783 1.549,-3.961 1.088,-6.139 -0.455,-2.161 -1.729,-4.06 -3.494,-5.209 -1.326,-0.858 -2.862,-1.313 -4.44,-1.313 -2.8,0 -5.381,1.398 -6.898,3.738 -0.512,0.779 -0.881,1.635 -1.104,2.547 -0.808,3.355 0.608,6.886 3.52,8.787 1.336,0.867 2.873,1.326 4.443,1.326 0.58,0 1.168,-0.062 1.744,-0.186 2.141,-0.464 3.965,-1.726 5.141,-3.551"
   inkscape:connector-curvature="0" />

            </g>

            <g
   id="g949"
   transform="translate(-617.603,-230.348)"
   style="fill:#000000">
                <path
   id="path947"
   style="fill:#000000;fill-rule:nonzero"
   d="m 193.103,90.796 c 1.033,0.37 2.121,0.56 3.223,0.56 4.041,0 7.679,-2.538 9.058,-6.313 1.817,-4.943 -0.756,-10.453 -5.73,-12.284 -1.059,-0.386 -2.164,-0.58 -3.28,-0.58 -1.404,0 -2.769,0.305 -4.056,0.909 -2.319,1.085 -4.072,3.009 -4.942,5.416 -0.13,0.357 -0.234,0.707 -0.322,1.062 -1.135,4.713 1.465,9.544 6.049,11.23"
   inkscape:connector-curvature="0" />

            </g>

            <g
   id="g953"
   transform="translate(-617.603,-230.348)"
   style="fill:#000000">
                <path
   id="path951"
   style="fill:#000000;fill-rule:nonzero"
   d="m 198.625,63.271 c 0.459,0.057 0.914,0.084 1.365,0.084 5.645,0 10.422,-4.235 11.114,-9.853 0.744,-6.125 -3.631,-11.725 -9.756,-12.482 -0.461,-0.057 -0.924,-0.084 -1.381,-0.084 -5.182,0 -9.645,3.505 -10.856,8.524 -0.105,0.43 -0.183,0.879 -0.24,1.333 -0.361,2.995 0.461,5.945 2.315,8.298 1.835,2.341 4.478,3.826 7.439,4.18"
   inkscape:connector-curvature="0" />

            </g>

            <g
   id="g957"
   transform="translate(-617.603,-230.348)"
   style="fill:#000000">
                <path
   id="path955"
   style="fill:#000000;fill-rule:nonzero"
   d="m 139.144,133.787 c 0.385,-1.574 0.156,-3.211 -0.629,-4.494 -1.086,-1.803 -3.064,-2.92 -5.172,-2.92 -1.086,0 -2.154,0.297 -3.088,0.861 -1.41,0.834 -2.39,2.16 -2.769,3.739 -0.373,1.544 -0.125,3.166 0.697,4.562 1.096,1.799 3.027,2.881 5.16,2.881 1.092,0 2.164,-0.299 3.1,-0.863 1.324,-0.795 2.308,-2.168 2.701,-3.766"
   inkscape:connector-curvature="0" />

            </g>

            <g
   id="g961"
   transform="translate(-617.603,-230.348)"
   style="fill:#000000">
                <path
   id="path959"
   style="fill:#000000;fill-rule:nonzero"
   d="m 146.531,126.654 h 0.002 c 1.834,0 3.561,-0.697 4.861,-1.963 2.694,-2.588 2.778,-7.226 0.184,-9.933 -1.307,-1.356 -3.067,-2.127 -4.961,-2.165 h -0.002 c -1.928,0 -3.664,0.7 -4.99,1.973 -0.951,0.938 -1.627,2.125 -1.942,3.416 -0.568,2.36 0.1,4.811 1.787,6.553 1.338,1.365 3.137,2.119 5.061,2.119"
   inkscape:connector-curvature="0" />

            </g>

            <g
   id="g965"
   transform="translate(-617.603,-230.348)"
   style="fill:#000000">
                <path
   id="path963"
   style="fill:#000000;fill-rule:nonzero"
   d="m 153.791,108.439 c 1.322,0.854 2.859,1.308 4.437,1.308 2.807,0 5.391,-1.404 6.911,-3.751 2.371,-3.666 1.24,-8.959 -2.42,-11.327 -1.33,-0.866 -2.869,-1.323 -4.451,-1.323 -2.797,0 -5.377,1.396 -6.901,3.734 -0.508,0.787 -0.875,1.643 -1.09,2.538 -0.81,3.365 0.6,6.91 3.514,8.821"
   inkscape:connector-curvature="0" />

            </g>

            <g
   id="g969"
   transform="translate(-617.603,-230.348)"
   style="fill:#000000">
                <path
   id="path967"
   style="fill:#000000;fill-rule:nonzero"
   d="m 170.158,68.673 c -1.043,-0.377 -2.133,-0.568 -3.238,-0.568 -4.02,0 -7.647,2.534 -9.024,6.304 -0.125,0.34 -0.226,0.678 -0.306,1.023 -1.149,4.756 1.451,9.594 6.045,11.261 1.05,0.379 2.148,0.572 3.257,0.572 4.032,0 7.662,-2.536 9.036,-6.312 1.794,-4.956 -0.793,-10.466 -5.77,-12.28"
   inkscape:connector-curvature="0" />

            </g>

            <g
   id="g973"
   transform="translate(-617.603,-230.348)"
   style="fill:#000000">
                <path
   id="path971"
   style="fill:#000000;fill-rule:nonzero"
   d="m 171.869,36.925 c -0.457,-0.056 -0.912,-0.082 -1.359,-0.082 -5.196,0 -9.672,3.525 -10.891,8.573 -0.102,0.422 -0.18,0.843 -0.23,1.278 -0.368,2.98 0.449,5.916 2.296,8.273 1.852,2.37 4.504,3.87 7.467,4.224 0.434,0.052 0.869,0.078 1.301,0.078 5.623,0 10.529,-4.326 11.172,-9.85 0.377,-2.978 -0.426,-5.908 -2.258,-8.261 -1.84,-2.37 -4.504,-3.873 -7.498,-4.233"
   inkscape:connector-curvature="0" />

            </g>

            <g
   id="g977"
   transform="translate(-617.603,-230.348)"
   style="fill:#000000">
                <path
   id="path975"
   style="fill:#000000;fill-rule:nonzero"
   d="m 166.789,26.252 c 0.463,0 0.932,-0.024 1.402,-0.075 5.516,-0.592 10.092,-4.601 11.385,-9.977 0.352,-1.454 0.447,-2.96 0.289,-4.472 C 179.154,5.043 173.549,0 166.826,0 c -0.461,0 -0.924,0.024 -1.392,0.074 -5.518,0.578 -10.098,4.589 -11.401,9.979 -0.349,1.463 -0.445,2.964 -0.287,4.458 0.723,6.692 6.33,11.741 13.043,11.741"
   inkscape:connector-curvature="0" />

            </g>

            <g
   id="g981"
   transform="translate(-617.603,-230.348)"
   style="fill:#000000">
                <path
   id="path979"
   style="fill:#000000;fill-rule:nonzero"
   d="m 62.73,118.189 c -0.348,-0.33 -0.736,-0.594 -1.186,-0.809 -0.578,-0.265 -1.205,-0.404 -1.853,-0.404 -1.732,0 -3.32,1 -4.043,2.547 -0.492,1.043 -0.541,2.285 -0.136,3.41 0.409,1.135 1.217,2.035 2.274,2.531 0.59,0.276 1.22,0.416 1.871,0.416 h 0.001 c 1.733,0 3.327,-1.011 4.06,-2.578 0.812,-1.724 0.414,-3.779 -0.988,-5.113"
   inkscape:connector-curvature="0" />

            </g>

            <g
   id="g985"
   transform="translate(-617.603,-230.348)"
   style="fill:#000000">
                <path
   id="path983"
   style="fill:#000000;fill-rule:nonzero"
   d="m 57.998,129.338 c -0.368,-0.078 -0.731,-0.117 -1.093,-0.117 -2.419,0 -4.543,1.728 -5.051,4.113 -0.268,1.279 0.019,2.69 0.788,3.861 0.768,1.17 1.942,1.993 3.224,2.254 1.383,0.309 2.74,0.039 3.903,-0.715 1.163,-0.759 1.95,-1.912 2.215,-3.246 0.395,-1.787 -0.159,-3.589 -1.477,-4.843 -0.707,-0.664 -1.577,-1.12 -2.509,-1.307"
   inkscape:connector-curvature="0" />

            </g>

            <g
   id="g989"
   transform="translate(-617.603,-230.348)"
   style="fill:#000000">
                <path
   id="path987"
   style="fill:#000000;fill-rule:nonzero"
   d="m 57.337,156.004 c 3.304,-0.076 5.957,-2.828 5.906,-6.133 -0.032,-1.631 -0.698,-3.148 -1.875,-4.265 -1.116,-1.063 -2.57,-1.649 -4.093,-1.649 -1.776,0.024 -3.277,0.672 -4.396,1.826 -1.121,1.162 -1.721,2.688 -1.688,4.289 0.071,3.161 2.902,5.932 6.062,5.932 l -10e-4,1.025 h 10e-4 z"
   inkscape:connector-curvature="0" />

            </g>

            <g
   id="g993"
   transform="translate(-617.603,-230.348)"
   style="fill:#000000">
                <path
   id="path991"
   style="fill:#000000;fill-rule:nonzero"
   d="m 61.825,174.764 c 0.532,0 1.062,-0.064 1.572,-0.189 3.725,-0.956 6.018,-4.803 5.099,-8.573 -0.326,-1.256 -1.007,-2.412 -1.964,-3.328 -1.327,-1.256 -3.054,-1.951 -4.857,-1.951 -0.576,0 -1.153,0.07 -1.715,0.211 -1.812,0.455 -3.347,1.596 -4.32,3.211 -0.962,1.603 -1.245,3.494 -0.793,5.314 0.764,3.022 3.763,5.303 6.978,5.305"
   inkscape:connector-curvature="0" />

            </g>

            <g
   id="g997"
   transform="translate(-617.603,-230.348)"
   style="fill:#000000">
                <path
   id="path995"
   style="fill:#000000;fill-rule:nonzero"
   d="m 75.229,194.268 c 4.018,-2.068 5.613,-7.014 3.551,-11.023 -0.425,-0.832 -0.98,-1.581 -1.655,-2.221 -1.529,-1.459 -3.542,-2.26 -5.663,-2.26 -1.286,0 -2.568,0.309 -3.709,0.893 -1.962,1.004 -3.419,2.716 -4.095,4.82 -0.668,2.08 -0.488,4.287 0.509,6.213 1.377,2.695 4.295,4.433 7.437,4.433 1.286,0 2.506,-0.287 3.625,-0.855"
   inkscape:connector-curvature="0" />

            </g>

            <g
   id="g1001"
   transform="translate(-617.603,-230.348)"
   style="fill:#000000">
                <path
   id="path999"
   style="fill:#000000;fill-rule:nonzero"
   d="m 95.135,200.209 c -0.229,-0.277 -0.476,-0.535 -0.731,-0.783 -1.786,-1.696 -4.133,-2.635 -6.602,-2.635 -2.248,0 -4.438,0.799 -6.166,2.246 -4.022,3.412 -4.542,9.469 -1.154,13.504 1.855,2.162 4.55,3.408 7.389,3.408 2.235,0 4.4,-0.787 6.1,-2.22 4.04,-3.401 4.562,-9.467 1.164,-13.52"
   inkscape:connector-curvature="0" />

            </g>

            <g
   id="g1005"
   transform="translate(-617.603,-230.348)"
   style="fill:#000000">
                <path
   id="path1003"
   style="fill:#000000;fill-rule:nonzero"
   d="m 77.627,113.373 c -0.354,-0.076 -0.717,-0.111 -1.075,-0.111 -0.995,0 -1.971,0.291 -2.823,0.843 -1.156,0.756 -1.945,1.916 -2.22,3.27 -0.281,1.293 -0.003,2.701 0.762,3.875 0.759,1.166 1.922,1.984 3.191,2.242 1.381,0.301 2.742,0.033 3.906,-0.715 1.158,-0.742 1.957,-1.896 2.253,-3.25 0.365,-1.781 -0.201,-3.597 -1.516,-4.849 -0.689,-0.655 -1.545,-1.106 -2.478,-1.305"
   inkscape:connector-curvature="0" />

            </g>

            <g
   id="g1009"
   transform="translate(-617.603,-230.348)"
   style="fill:#000000">
                <path
   id="path1007"
   style="fill:#000000;fill-rule:nonzero"
   d="m 76.982,140.064 c 3.312,-0.1 5.96,-2.869 5.88,-6.172 -0.034,-1.619 -0.697,-3.121 -1.865,-4.234 -1.114,-1.057 -2.555,-1.641 -4.063,-1.641 l -0.215,0.004 c -1.594,0.018 -3.091,0.66 -4.215,1.811 -1.116,1.168 -1.717,2.703 -1.686,4.318 0.069,3.205 2.869,5.914 6.113,5.914 l -10e-4,1.027 z"
   inkscape:connector-curvature="0" />

            </g>

            <g
   id="g1013"
   transform="translate(-617.603,-230.348)"
   style="fill:#000000">
                <path
   id="path1011"
   style="fill:#000000;fill-rule:nonzero"
   d="m 75.257,148.211 c -0.955,1.611 -1.233,3.496 -0.777,5.301 0.754,3.027 3.738,5.306 6.943,5.306 0.536,0 1.067,-0.064 1.58,-0.193 3.751,-0.941 6.043,-4.766 5.108,-8.521 -0.331,-1.295 -1.013,-2.465 -1.976,-3.381 -1.316,-1.25 -3.04,-1.94 -4.852,-1.94 -0.574,0 -1.149,0.071 -1.712,0.209 -1.804,0.461 -3.34,1.604 -4.314,3.219"
   inkscape:connector-curvature="0" />

            </g>

            <g
   id="g1017"
   transform="translate(-617.603,-230.348)"
   style="fill:#000000">
                <path
   id="path1015"
   style="fill:#000000;fill-rule:nonzero"
   d="m 83.295,168.508 c -0.669,2.084 -0.49,4.295 0.504,6.223 1.367,2.701 4.284,4.441 7.434,4.441 h 10e-4 c 1.261,0 2.505,-0.293 3.595,-0.848 4.022,-2.054 5.622,-7.005 3.569,-11.033 -0.421,-0.832 -0.978,-1.582 -1.658,-2.232 -1.515,-1.44 -3.517,-2.235 -5.634,-2.235 -1.29,0 -2.581,0.309 -3.73,0.891 -1.96,0.996 -3.409,2.699 -4.081,4.793"
   inkscape:connector-curvature="0" />

            </g>

            <g
   id="g1021"
   transform="translate(-617.603,-230.348)"
   style="fill:#000000">
                <path
   id="path1019"
   style="fill:#000000;fill-rule:nonzero"
   d="m 114.763,184.287 c -0.244,-0.295 -0.498,-0.559 -0.762,-0.816 -1.771,-1.682 -4.107,-2.616 -6.568,-2.616 -2.248,0 -4.441,0.797 -6.176,2.243 -4.015,3.412 -4.538,9.478 -1.158,13.513 1.818,2.18 4.483,3.428 7.312,3.428 2.251,0 4.449,-0.797 6.188,-2.244 1.964,-1.653 3.168,-3.971 3.386,-6.524 0.22,-2.547 -0.57,-5.025 -2.222,-6.984"
   inkscape:connector-curvature="0" />

            </g>

            <g
   id="g1025"
   transform="translate(-617.603,-230.348)"
   style="fill:#000000">
                <path
   id="path1023"
   style="fill:#000000;fill-rule:nonzero"
   d="m 139.051,200.309 c -0.318,-0.301 -0.668,-0.596 -1.035,-0.873 -1.973,-1.479 -4.303,-2.262 -6.733,-2.262 -0.535,0 -1.072,0.039 -1.611,0.117 -2.945,0.42 -5.551,1.967 -7.34,4.354 -1.789,2.377 -2.549,5.314 -2.14,8.269 0.41,2.975 1.959,5.608 4.361,7.416 1.953,1.471 4.279,2.249 6.725,2.249 3.56,0 6.828,-1.624 8.962,-4.45 3.424,-4.545 2.913,-10.916 -1.189,-14.82"
   inkscape:connector-curvature="0" />

            </g>

            <g
   id="g1029"
   transform="translate(-617.603,-230.348)"
   style="fill:#000000">
                <path
   id="path1027"
   style="fill:#000000;fill-rule:nonzero"
   d="m 95.21,116.578 c 3.325,-0.062 5.977,-2.807 5.914,-6.123 -0.016,-1.636 -0.675,-3.15 -1.852,-4.269 -1.14,-1.083 -2.647,-1.678 -4.247,-1.678 -3.352,0.077 -5.995,2.834 -5.931,6.143 0.056,3.159 2.851,5.929 5.981,5.929 v 1.019 h 0.002 z"
   inkscape:connector-curvature="0" />

            </g>

            <g
   id="g1033"
   transform="translate(-617.603,-230.348)"
   style="fill:#000000">
                <path
   id="path1031"
   style="fill:#000000;fill-rule:nonzero"
   d="m 92.755,130.031 c 0.748,3.031 3.734,5.312 6.948,5.312 0.531,0 1.057,-0.062 1.564,-0.185 1.829,-0.453 3.376,-1.594 4.351,-3.211 0.959,-1.604 1.241,-3.49 0.79,-5.312 -0.336,-1.295 -1.024,-2.471 -1.988,-3.389 -1.315,-1.256 -3.035,-1.945 -4.838,-1.945 -0.579,0 -1.159,0.072 -1.725,0.214 -3.754,0.967 -6.046,4.789 -5.102,8.516"
   inkscape:connector-curvature="0" />

            </g>

            <g
   id="g1037"
   transform="translate(-617.603,-230.348)"
   style="fill:#000000">
                <path
   id="path1035"
   style="fill:#000000;fill-rule:nonzero"
   d="m 102.076,151.283 c 1.372,2.682 4.286,4.414 7.424,4.414 h 0.001 c 1.263,0 2.506,-0.293 3.595,-0.85 4.027,-2.046 5.634,-6.994 3.586,-11.033 -0.428,-0.832 -0.986,-1.578 -1.654,-2.215 -1.528,-1.453 -3.541,-2.254 -5.668,-2.254 -1.288,0 -2.576,0.309 -3.725,0.889 -4.023,2.061 -5.622,7.02 -3.559,11.049"
   inkscape:connector-curvature="0" />

            </g>

            <g
   id="g1041"
   transform="translate(-617.603,-230.348)"
   style="fill:#000000">
                <path
   id="path1039"
   style="fill:#000000;fill-rule:nonzero"
   d="m 118.367,173.146 c 1.824,2.166 4.488,3.412 7.311,3.412 2.261,0 4.466,-0.805 6.21,-2.266 4.026,-3.396 4.549,-9.447 1.165,-13.49 -0.231,-0.271 -0.475,-0.531 -0.733,-0.773 -1.797,-1.713 -4.142,-2.653 -6.607,-2.653 -2.25,0 -4.442,0.801 -6.17,2.254 -4.041,3.412 -4.57,9.475 -1.176,13.516"
   inkscape:connector-curvature="0" />

            </g>

            <g
   id="g1045"
   transform="translate(-617.603,-230.348)"
   style="fill:#000000">
                <path
   id="path1043"
   style="fill:#000000;fill-rule:nonzero"
   d="m 158.527,191.648 c 3.416,-4.557 2.887,-10.943 -1.229,-14.855 -0.314,-0.299 -0.638,-0.579 -0.992,-0.84 -1.963,-1.481 -4.285,-2.264 -6.718,-2.264 -0.53,0 -1.063,0.039 -1.596,0.113 -2.977,0.418 -5.6,1.967 -7.389,4.358 -1.783,2.386 -2.523,5.359 -2.086,8.371 0.434,2.974 1.965,5.574 4.313,7.318 1.968,1.494 4.293,2.281 6.728,2.281 0.516,0 1.033,-0.035 1.553,-0.107 2.973,-0.408 5.605,-1.963 7.416,-4.375"
   inkscape:connector-curvature="0" />

            </g>

            <g
   id="g1049"
   transform="translate(-617.603,-230.348)"
   style="fill:#000000">
                <path
   id="path1047"
   style="fill:#000000;fill-rule:nonzero"
   d="m 190.717,189.639 c -1.086,-1.032 -2.336,-1.867 -3.719,-2.486 -1.681,-0.744 -3.465,-1.119 -5.295,-1.119 -5.207,0 -9.927,3.061 -12.029,7.798 -2.246,5.077 -1.061,11.045 2.947,14.851 1.078,1.024 2.334,1.859 3.733,2.488 1.679,0.745 3.461,1.125 5.291,1.125 5.195,0 9.91,-3.061 12.015,-7.8 2.258,-5.066 1.077,-11.038 -2.943,-14.857"
   inkscape:connector-curvature="0" />

            </g>

        </g>

    </g>
    </g>
  </g>
</svg>
